<?xml version="1.0" encoding="UTF-8"?>
<svg xmlns="http://www.w3.org/2000/svg" xmlns:xlink="http://www.w3.org/1999/xlink" width="388pt" height="214pt" viewBox="0 0 388 214" version="1.1">
<g id="surface1">
<path style="fill:none;stroke-width:40;stroke-linecap:round;stroke-linejoin:round;stroke:rgb(0%,0%,0%);stroke-opacity:1;stroke-miterlimit:10;" d="M 20.039052 760.966855 C 20.039052 760.966855 3440.388905 704.303562 3443.084216 863.077613 C 3452.927961 1428.425394 3380.388935 2197.060039 3481.170134 2307.933162 C 3758.435621 2613.097122 5905.543922 2531.548713 5469.958203 2175.446205 C 5268.161428 2010.363252 3717.302829 1979.402896 3529.334173 2144.836344 C 3524.88105 2047.63251 3513.865431 1145.809919 3569.060715 1084.940691 C 3826.638712 800.105418 4402.029049 805.713331 4800.583537 831.766763 C 4794.841353 971.14678 4781.950734 1154.104958 4770.935115 1294.886953 C 4519.919615 1300.845361 4378.474373 1345.708669 4156.052609 1305.168128 C 4153.708861 1046.503118 4139.06043 978.507166 4141.169804 719.842156 C 4330.779085 684.559033 4838.200706 658.155107 4860.114757 775.804459 C 4893.161616 952.687398 4850.153825 1086.225838 4848.513201 1310.65921 C 4974.724075 1402.255131 5018.786553 1478.195626 5018.786553 1478.195626 C 4795.661665 1508.688656 4716.325767 1493.500557 4487.341506 1528.316353 C 4411.521232 1539.882675 4329.724398 1471.185734 4225.427575 1386.482874 C 4261.872869 1514.880727 4491.208692 1812.100143 4741.169504 1758.123975 C 5200.77865 1658.817174 5278.005173 1053.980336 4741.169504 506.040453 C 5317.848904 446.456372 5724.7237 1188.803923 5400.348862 1939.680175 C 5158.122421 2500.354694 4325.0369 2255.709467 4265.622867 2177.31551 C 4137.654181 2008.493947 5532.301921 1871.333729 5594.17689 2134.672001 C 5606.833134 1860.468397 5595.817515 874.994429 5584.450333 706.172867 C 5581.872209 667.968956 5374.802 384.886155 4552.732099 363.505985 C 4217.107266 354.860452 3693.865341 450.07815 3455.857647 658.739265 C 3426.092037 388.975259 3568.709153 193.399275 3835.662145 109.04691 C 4222.380701 -13.158872 4860.114757 -23.206384 5316.325467 165.009213 C 5423.200413 209.171532 5594.17689 322.848612 5594.17689 536.533483 C 5594.17689 663.879852 5775.934612 674.044195 6054.137598 709.794644 C 5899.68455 751.970827 5875.543937 815.644012 5858.434571 933.527027 C 5848.708013 1000.471494 5817.536154 1191.140553 5876.129874 1249.088993 C 6011.598557 1383.094759 5858.434571 903.734986 5858.434571 3194.450822 C 5858.434571 3549.03452 5922.067351 3452.88217 5921.950164 3577.891908 C 5921.715789 3706.17293 5823.161151 3549.03452 5829.020523 3959.697353 C 5831.598647 4140.3189 6046.871977 4093.703119 6242.340629 4253.762317 C 6632.809184 4573.179724 6352.496824 4503.548131 6591.324829 4566.053001 C 6512.223306 4586.61535 6453.278023 4638.371719 6469.332703 4937.57727 C 6569.645153 4871.801118 6899.410613 4832.896218 7217.457329 4915.028785 C 7027.613674 4901.943653 6627.066999 4906.26642 6504.840498 4988.515818 C 6376.871812 5074.620657 6579.020148 5413.665761 6588.746706 5520.332949 C 6596.246702 5602.465516 6517.613929 5639.851606 6533.199858 5723.035656 C 6529.801423 5792.667249 6600.582637 5749.556414 6598.356076 5785.540525 C 6584.176395 5858.326569 6535.89517 5857.158254 6531.324859 5948.987838 C 6525.934237 6059.276803 6508.356121 6204.615228 6529.567048 6311.282417 C 6588.746706 6385.003113 7401.207237 6401.710022 7457.457209 6330.910114 C 7629.371185 6224.59342 6778.824736 6199.591473 6822.418464 6189.543961 C 7193.902653 6103.906448 7431.793159 6212.442941 7476.558762 6216.298382 C 7498.824376 6188.375646 7478.785323 5958.568023 7481.480634 5876.902783 C 7483.941571 5801.312782 7216.637017 5804.467233 7201.285462 5766.730649 C 7269.254178 5724.90496 7505.855622 5810.425641 7489.800943 5732.148515 C 7478.902511 5659.128808 7132.847996 5673.966413 7083.746458 5634.477355 C 7051.754287 5608.657587 7171.168289 5595.105129 7324.918213 5602.465516 C 7448.668151 5601.764526 7439.05878 5579.91703 7436.832219 5516.010182 C 7431.793159 5376.513334 7567.261841 5194.60664 7578.629023 5060.250378 C 7588.004018 4949.610918 7573.004026 4906.500083 7578.160273 4789.785383 C 7595.621202 4398.633416 6805.19191 4590.821285 6864.137193 4538.948085 C 6899.410613 4443.847219 7301.480724 4506.118425 7454.996273 4480.649151 C 7650.582112 4448.286817 7683.511783 4364.168114 7807.847659 4275.259319 C 7883.316371 4221.399983 8111.831882 4170.81193 8189.76153 4082.019966 C 8208.745896 4060.406133 8198.316213 4031.431913 8168.433416 4017.528961 C 7994.292878 3937.032036 7529.996235 3955.374586 7430.035347 3645.420533 C 7346.129139 3385.236713 7385.855682 1724.710157 7439.99628 1535.443076 C 7546.168102 1681.365659 7662.535231 3789.941138 8167.144354 3696.008586 C 8157.183421 3491.670238 8194.33184 1432.397666 8167.144354 1344.18986 C 8147.339676 1280.16618 7727.105511 1077.22981 7469.996265 1055.499145 C 7396.168177 1049.190243 6748.824751 1200.487076 6339.606205 1226.190013 C 6312.770281 1227.942486 6307.614034 1199.085098 6334.098395 1195.580152 C 6473.903013 1177.471264 7413.160356 867.517211 7499.99625 885.392436 C 7975.4257 983.764585 8203.941211 1292.199828 8195.620902 1129.10301 C 8183.433408 893.220148 8246.011502 759.331213 8055.58191 682.80656 C 7831.167959 592.612618 7811.949219 424.492044 7250.035437 475.430592 C 6914.879355 505.80679 6586.402957 631.050192 6480.46551 668.903608 C 6114.723505 799.754923 7395.933802 732.693624 8013.980368 730.006499 C 8275.659925 728.838184 11358.627133 731.64214 11620.072315 720.89364 " transform="matrix(0.0333333,0,0,-0.0334349,0.000000000000022737,213.853003)"/>
</g>
</svg>
